<svg width="20" height="20" viewBox="0 0 20 20" fill="none" xmlns="http://www.w3.org/2000/svg">
<path d="M5.00004 18.3333H15C15.4421 18.3333 15.866 18.1577 16.1786 17.8451C16.4911 17.5326 16.6667 17.1087 16.6667 16.6666V3.33329C16.6667 2.89127 16.4911 2.46734 16.1786 2.15478C15.866 1.84222 15.4421 1.66663 15 1.66663H5.00004C4.55801 1.66663 4.13409 1.84222 3.82153 2.15478C3.50897 2.46734 3.33337 2.89127 3.33337 3.33329V16.6666C3.33337 17.1087 3.50897 17.5326 3.82153 17.8451C4.13409 18.1577 4.55801 18.3333 5.00004 18.3333ZM7.50004 15.8333H5.83337V14.1666H7.50004V15.8333ZM7.50004 12.5H5.83337V10.8333H7.50004V12.5ZM7.50004 9.16663H5.83337V7.49996H7.50004V9.16663ZM10.8334 15.8333H9.16671V14.1666H10.8334V15.8333ZM10.8334 12.5H9.16671V10.8333H10.8334V12.5ZM10.8334 9.16663H9.16671V7.49996H10.8334V9.16663ZM14.1667 15.8333H12.5V10.8333H14.1667V15.8333ZM14.1667 9.16663H12.5V7.49996H14.1667V9.16663ZM5.00004 3.33329H15V5.83329H5.00004V3.33329Z" fill="white"/>
</svg>
